# Wavefront OBJ file automatically generated by Tiled2Unity

# Vertices (Count = 12)
v 0 -0.639999985694885 0
v -0.639999985694885 -0.639999985694885 0
v -0.639999985694885 0 0
v 0 0 0
v -1.27999997138977 -0.639999985694885 0
v -1.27999997138977 0 0
v -1.91999995708466 -0.639999985694885 0
v -1.91999995708466 0 0
v -2.55999994277954 -0.639999985694885 0
v -2.55999994277954 0 0
v -3.19999980926514 -0.639999985694885 0
v -3.19999980926514 0 0

# Texture Coorindates (Count = 4)
vt 0.0001220703 0.0001220703
vt 0.9998779 0.0001220703
vt 0.9998779 0.9998779
vt 0.0001220703 0.9998779

# Normal
vn 0 0 -1

# Groups (Count = 1)
g mesh_[00]_[00]
f  1/1/1  2/2/1  3/3/1  4/4/1 
f  2/1/1  5/2/1  6/3/1  3/4/1 
f  5/1/1  7/2/1  8/3/1  6/4/1 
f  7/1/1  9/2/1  10/3/1  8/4/1 
f  9/1/1  11/2/1  12/3/1  10/4/1 
